{
  "accessors": [
    {
      "bufferView": 1,
      "componentType": 5126,
      "count": 65532,
      "max": [
        755.8653564453125,
        779.2328491210938,
        2119.015625
      ],
      "min": [
        0.04022216796875,
        11.34197998046875,
        0.00745275616645813
      ],
      "type": "VEC3"
    },
    {
      "bufferView": 1,
      "byteOffset": 786384,
      "componentType": 5126,
      "count": 65532,
      "max": [
        0.9999986290931702,
        0.9999990463256836,
        0.9999999403953552
      ],
      "min": [
        -0.9999993443489075,
        -0.9999970197677612,
        -0.9999999403953552
      ],
      "type": "VEC3"
    },
    {
      "bufferView": 0,
      "componentType": 5125,
      "count": 311334,
      "type": "SCALAR"
    },
    {
      "bufferView": 1,
      "byteOffset": 1572768,
      "componentType": 5126,
      "count": 65532,
      "max": [
        748.0549926757813,
        779.44482421875,
        2134.790283203125
      ],
      "min": [
        0.0,
        0.0,
        0.05399563908576965
      ],
      "type": "VEC3"
    },
    {
      "bufferView": 1,
      "byteOffset": 2359152,
      "componentType": 5126,
      "count": 65532,
      "max": [
        0.9999914765357971,
        0.9999961256980896,
        0.9999992251396179
      ],
      "min": [
        -0.9999902844429016,
        -0.9999991655349731,
        -0.9999998807907104
      ],
      "type": "VEC3"
    },
    {
      "bufferView": 0,
      "byteOffset": 1245336,
      "componentType": 5125,
      "count": 319782,
      "type": "SCALAR"
    },
    {
      "bufferView": 1,
      "byteOffset": 3145536,
      "componentType": 5126,
      "count": 58114,
      "max": [
        755.8653564453125,
        779.2372436523438,
        2134.790283203125
      ],
      "min": [
        0.12115478515625,
        2.814178466796875,
        0.0
      ],
      "type": "VEC3"
    },
    {
      "bufferView": 1,
      "byteOffset": 3842904,
      "componentType": 5126,
      "count": 58114,
      "max": [
        0.9999986290931702,
        0.9999979734420776,
        0.9999997019767761
      ],
      "min": [
        -0.999991238117218,
        -0.9999995827674866,
        -1.0
      ],
      "type": "VEC3"
    },
    {
      "bufferView": 0,
      "byteOffset": 2524464,
      "componentType": 5125,
      "count": 195141,
      "type": "SCALAR"
    }
  ],
  "asset": {
    "extras": {
      "author": "SMK – National Gallery of Denmark (https://sketchfab.com/smkmuseum)",
      "license": "CC0-1.0 (http://creativecommons.org/publicdomain/zero/1.0/)",
      "source": "https://sketchfab.com/3d-models/doryphoros-the-spear-bearer-2b213f98afa742a5880af130b4d4eddc",
      "title": "Doryphoros (The Spear Bearer)"
    },
    "generator": "Sketchfab-12.68.0",
    "version": "2.0"
  },
  "bufferViews": [
    {
      "buffer": 0,
      "byteLength": 3305028,
      "name": "floatBufferViews",
      "target": 34963
    },
    {
      "buffer": 0,
      "byteLength": 4540272,
      "byteOffset": 3305028,
      "byteStride": 12,
      "name": "floatBufferViews",
      "target": 34962
    }
  ],
  "buffers": [
    {
      "byteLength": 7845300,
      "uri": "scene.bin"
    }
  ],
  "materials": [
    {
      "doubleSided": true,
      "name": "default",
      "pbrMetallicRoughness": {
        "metallicFactor": 0.0,
        "roughnessFactor": 0.6
      }
    }
  ],
  "meshes": [
    {
      "name": "Object_0",
      "primitives": [
        {
          "attributes": {
            "NORMAL": 1,
            "POSITION": 0
          },
          "indices": 2,
          "material": 0,
          "mode": 4
        }
      ]
    },
    {
      "name": "Object_1",
      "primitives": [
        {
          "attributes": {
            "NORMAL": 4,
            "POSITION": 3
          },
          "indices": 5,
          "material": 0,
          "mode": 4
        }
      ]
    },
    {
      "name": "Object_2",
      "primitives": [
        {
          "attributes": {
            "NORMAL": 7,
            "POSITION": 6
          },
          "indices": 8,
          "material": 0,
          "mode": 4
        }
      ]
    }
  ],
  "nodes": [
    {
      "children": [
        1
      ],
      "matrix": [
        0.0010000000474974513,
        0.0,
        0.0,
        0.0,
        0.0,
        2.220446154715841e-19,
        -0.0010000000474974513,
        0.0,
        0.0,
        0.0010000000474974513,
        2.220446154715841e-19,
        0.0,
        0.0,
        0.0,
        0.0,
        1.0
      ],
      "name": "Sketchfab_model"
    },
    {
      "children": [
        2
      ],
      "matrix": [
        1.0,
        0.0,
        0.0,
        0.0,
        0.0,
        1.0,
        0.0,
        0.0,
        0.0,
        0.0,
        1.0,
        0.0,
        -356.11358642578125,
        -442.9500732421875,
        -0.4769626557826996,
        1.0
      ],
      "name": "The_Doryphoros_SMK_KAS11_10pct.obj.cleaner.gles"
    },
    {
      "children": [
        3,
        4,
        5
      ],
      "name": "Object_2"
    },
    {
      "mesh": 0,
      "name": "Object_3"
    },
    {
      "mesh": 1,
      "name": "Object_4"
    },
    {
      "mesh": 2,
      "name": "Object_5"
    }
  ],
  "scene": 0,
  "scenes": [
    {
      "name": "Sketchfab_Scene",
      "nodes": [
        0
      ]
    }
  ]
}
